<svg viewBox="0 0 1200 630" xmlns="http://www.w3.org/2000/svg">
  <rect width="1200" height="630" fill="#052e16"/>
  <circle cx="600" cy="315" r="500" fill="none" stroke="#166534" stroke-width="1" opacity="0.3"/>
  <circle cx="600" cy="315" r="350" fill="none" stroke="#166534" stroke-width="1" opacity="0.2"/>
  <circle cx="600" cy="315" r="200" fill="none" stroke="#166534" stroke-width="1" opacity="0.15"/>
  <rect x="80" y="80" width="64" height="64" rx="14" fill="#16a34a"/>
  <path d="M94 100 Q94 88 112 88 Q130 88 130 100 Q130 108 112 108 Q94 108 94 116 Q94 124 112 124 Q130 124 130 116" fill="none" stroke="white" stroke-width="5" stroke-linecap="round"/>
  <polygon points="122,110 135,114 122,118" fill="white"/>
  <text x="160" y="126" font-family="Arial Black, sans-serif" font-weight="900" font-size="42" fill="white" letter-spacing="-1">Shakai</text>
  <text x="80" y="260" font-family="Arial Black, sans-serif" font-weight="900" font-size="82" fill="white" letter-spacing="-2">Trouve ton</text>
  <text x="80" y="360" font-family="Arial Black, sans-serif" font-weight="900" font-size="82" fill="#4ade80" letter-spacing="-2">CDI, Stage,</text>
  <text x="80" y="460" font-family="Arial Black, sans-serif" font-weight="900" font-size="82" fill="#4ade80" letter-spacing="-2">Alternance</text>
  <text x="80" y="530" font-family="Arial, sans-serif" font-size="32" fill="white" opacity="0.9">en 1 clic grâce à Shakai · shakai.fr</text>
  <rect x="820" y="200" width="300" height="52" rx="26" fill="#0f3d1f" stroke="#166534" stroke-width="1"/>
  <text x="970" y="233" font-family="Arial, sans-serif" font-size="22" fill="#86efac" text-anchor="middle">Analyse de CV</text>
  <rect x="820" y="270" width="300" height="52" rx="26" fill="#0f3d1f" stroke="#166534" stroke-width="1"/>
  <text x="970" y="303" font-family="Arial, sans-serif" font-size="22" fill="#86efac" text-anchor="middle">Offres en temps réel</text>
  <rect x="820" y="340" width="300" height="52" rx="26" fill="#0f3d1f" stroke="#166534" stroke-width="1"/>
  <text x="970" y="373" font-family="Arial, sans-serif" font-size="22" fill="#86efac" text-anchor="middle">Lettre de motivation IA</text>
  <rect x="820" y="410" width="300" height="52" rx="26" fill="#ca8a04"/>
  <text x="970" y="443" font-family="Arial Black, sans-serif" font-size="20" fill="#052e16" text-anchor="middle" font-weight="900">Dépose ton CV →</text>
</svg>